<svg xmlns="http://www.w3.org/2000/svg" xmlns:xlink="http://www.w3.org/1999/xlink" width="80" zoomAndPan="magnify" viewBox="0 0 60 60" height="80" preserveAspectRatio="xMidYMid meet" version="1.0"><path fill="#800000" d="M 60 6.640625 L 53.359375 0 L 45.117188 8.242188 C 40.832031 5.226562 35.605469 3.484375 30 3.484375 C 15.351562 3.484375 3.484375 15.398438 3.484375 30 C 3.484375 35.605469 5.226562 40.832031 8.242188 45.117188 L 0 53.359375 L 6.640625 60 L 14.882812 51.757812 C 19.167969 54.726562 24.394531 56.515625 30 56.515625 C 44.648438 56.515625 56.515625 44.601562 56.515625 30 C 56.515625 24.394531 54.773438 19.167969 51.757812 14.882812 Z M 12.902344 30 C 12.902344 20.582031 20.582031 12.902344 30 12.902344 C 33.015625 12.902344 35.839844 13.703125 38.289062 15.070312 L 15.070312 38.289062 C 13.65625 35.839844 12.902344 33.015625 12.902344 30 Z M 47.097656 30 C 47.097656 39.417969 39.417969 47.097656 30 47.097656 C 26.984375 47.097656 24.160156 46.296875 21.710938 44.929688 L 44.976562 21.664062 C 46.34375 24.160156 47.097656 26.984375 47.097656 30 Z M 47.097656 30 " fill-opacity="1" fill-rule="nonzero"/></svg>